<?xml version="1.0" encoding="UTF-8"?>
<svg width="200" height="200" viewBox="0 0 200 200" xmlns="http://www.w3.org/2000/svg">
  <!-- Smoothie Glass -->
  <path d="M60 50 L60 150 Q60 170 80 170 L120 170 Q140 170 140 150 L140 50 Z" fill="#87CEEB" stroke="#4682B4" stroke-width="2"/>
  
  <!-- Smoothie Layers -->
  <path d="M65 55 L135 55 L135 100 L65 100 Z" fill="#FF69B4"/>
  <path d="M65 100 L135 100 L135 130 L65 130 Z" fill="#FFB6C1"/>
  <path d="M65 130 L135 130 L135 145 Q135 165 120 165 L80 165 Q65 165 65 145 Z" fill="#FFC0CB"/>
  
  <!-- Straw -->
  <rect x="90" y="30" width="4" height="40" fill="#FF6347"/>
  <rect x="85" y="25" width="14" height="8" rx="4" fill="#FF6347"/>
  
  <!-- Fruit Garnish -->
  <circle cx="110" cy="65" r="8" fill="#FF4500"/>
  <circle cx="90" cy="75" r="6" fill="#32CD32"/>
  <circle cx="115" cy="85" r="5" fill="#FFD700"/>
  
  <!-- Ice Cubes -->
  <rect x="75" y="110" width="8" height="8" fill="#E0FFFF" opacity="0.7"/>
  <rect x="115" y="120" width="8" height="8" fill="#E0FFFF" opacity="0.7"/>
</svg>
