<?xml version="1.0" encoding="UTF-8"?>
<svg width="200" height="200" viewBox="0 0 200 200" xmlns="http://www.w3.org/2000/svg">
  <!-- Coffee Cup -->
  <path d="M30 80 L30 160 Q30 180 50 180 L130 180 Q150 180 150 160 L150 80 Z" fill="#8B4513" stroke="#654321" stroke-width="2"/>
  
  <!-- Coffee -->
  <path d="M35 85 L35 155 Q35 170 50 170 L130 170 Q145 170 145 155 L145 85 Z" fill="#3E2723"/>
  
  <!-- Foam -->
  <ellipse cx="90" cy="85" rx="55" ry="10" fill="#F5F5DC"/>
  
  <!-- Handle -->
  <path d="M150 100 Q170 100 170 120 Q170 140 150 140" fill="none" stroke="#8B4513" stroke-width="6"/>
  
  <!-- Steam -->
  <path d="M75 65 Q75 55 80 55 Q85 65 85 55" fill="none" stroke="#E0E0E0" stroke-width="2"/>
  <path d="M95 65 Q95 55 100 55 Q105 65 105 55" fill="none" stroke="#E0E0E0" stroke-width="2"/>
  <path d="M115 65 Q115 55 120 55 Q125 65 125 55" fill="none" stroke="#E0E0E0" stroke-width="2"/>
</svg>
