<?xml version="1.0" encoding="UTF-8"?>
<svg width="200" height="200" viewBox="0 0 200 200" xmlns="http://www.w3.org/2000/svg">
  <!-- Signature Latte Cup -->
  <path d="M40 70 L40 150 Q40 170 60 170 L140 170 Q160 170 160 150 L160 70 Z" fill="#D2691E" stroke="#8B4513" stroke-width="2"/>
  
  <!-- Latte -->
  <path d="M45 75 L45 145 Q45 165 60 165 L140 165 Q155 165 155 145 L155 75 Z" fill="#8B4513"/>
  
  <!-- Milk Layer -->
  <path d="M45 75 L155 75 L155 110 Q155 115 150 115 L50 115 Q45 115 45 110 Z" fill="#DEB887"/>
  
  <!-- Foam Art (Heart) -->
  <path d="M85 85 Q85 80 90 80 Q95 80 95 85 Q95 90 100 95 Q105 90 105 85 Q105 80 110 80 Q115 80 115 85 Q115 95 100 110 Q100 115 100 110 Q85 95 85 85" fill="#F5F5DC"/>
  
  <!-- Handle -->
  <path d="M160 90 Q180 90 180 110 Q180 130 160 130" fill="none" stroke="#D2691E" stroke-width="6"/>
  
  <!-- Premium Crown -->
  <polygon points="75,55 85,45 95,55 105,45 115,55 125,45 135,55 125,65 115,55 105,65 95,55 85,65 75,55" fill="#FFD700" stroke="#FFA500" stroke-width="1"/>
</svg>
